HIERARCHY
ROOT SpineBase
{
  OFFSET 0.000000 0.000000 0.000000
  CHANNELS 6 Xposition Yposition Zposition Zrotation Xrotation Yrotation
  JOINT SpineMid
  {
    OFFSET 0.000000 30.083372 -0.000000
    CHANNELS 3 Zrotation Xrotation Yrotation
    JOINT SpineShoulder
    {
      OFFSET -0.258007 22.546678 -0.502751
      CHANNELS 3 Zrotation Xrotation Yrotation
      JOINT Neck
      {
        OFFSET -0.116315 7.488457 -0.433657
        CHANNELS 3 Zrotation Xrotation Yrotation
        JOINT Head
        {
          OFFSET 1.062217 11.524312 4.305890
          CHANNELS 3 Zrotation Xrotation Yrotation
          End Site
          {
            OFFSET 0 0 0
          }
        }
      }
      JOINT ShoulderLeft
      {
        OFFSET 3.400403 -7.551494 -11.889419
        CHANNELS 3 Zrotation Xrotation Yrotation
        JOINT ElbowLeft
        {
          OFFSET -1.989335 -24.079946 -6.300264
          CHANNELS 3 Zrotation Xrotation Yrotation
          JOINT WristLeft
          {
            OFFSET -0.659108 -20.082557 -1.361543
            CHANNELS 3 Zrotation Xrotation Yrotation
            JOINT HandLeft
            {
              OFFSET -2.230123 -2.871747 0.157577
              CHANNELS 3 Zrotation Xrotation Yrotation
              JOINT HandTipLeft
              {
                OFFSET -0.427265 -4.441519 1.430701
                CHANNELS 3 Zrotation Xrotation Yrotation
                End Site
                {
                  OFFSET 0 0 0
                }
              }
              JOINT ThumbLeft
              {
                OFFSET -1.306216 1.939269 -2.751052
                CHANNELS 3 Zrotation Xrotation Yrotation
                End Site
                {
                  OFFSET 0 0 0
                }
              }
            }
          }
        }
      }
      JOINT ShoulderRight
      {
        OFFSET 0.842609 -5.816076 -10.491801
        CHANNELS 3 Zrotation Xrotation Yrotation
        JOINT ElbowRight
        {
          OFFSET 0.350057 -24.555348 -7.871330
          CHANNELS 3 Zrotation Xrotation Yrotation
          JOINT WristRight
          {
            OFFSET -5.231904 -21.830504 -1.268406
            CHANNELS 3 Zrotation Xrotation Yrotation
            JOINT HandRight
            {
              OFFSET 1.106490 -3.680469 1.193806
              CHANNELS 3 Zrotation Xrotation Yrotation
              JOINT HandTipRight
              {
                OFFSET -0.682301 -4.230311 0.589971
                CHANNELS 3 Zrotation Xrotation Yrotation
                End Site
                {
                  OFFSET 0 0 0
                }
              }
              JOINT ThumbRight
              {
                OFFSET 2.327428 2.602122 -4.031586
                CHANNELS 3 Zrotation Xrotation Yrotation
                End Site
                {
                  OFFSET 0 0 0
                }
              }
            }
          }
        }
      }
    }
  }
  JOINT HipLeft
  {
    OFFSET 3.749696 0.164196 -1.616865
    CHANNELS 3 Zrotation Xrotation Yrotation
    JOINT KneeLeft
    {
      OFFSET -10.154196 -33.089548 13.595221
      CHANNELS 3 Zrotation Xrotation Yrotation
      JOINT AnkleLeft
      {
        OFFSET 0.625683 -24.301174 0.773026
        CHANNELS 3 Zrotation Xrotation Yrotation
        JOINT FootLeft
        {
          OFFSET -8.701736 4.615222 -4.825486
          CHANNELS 3 Zrotation Xrotation Yrotation
          End Site
          {
            OFFSET 0 0 0
          }
        }
      }
    }
  }
  JOINT HipRight
  {
    OFFSET -4.368162 0.848247 -4.857895
    CHANNELS 3 Zrotation Xrotation Yrotation
    JOINT KneeRight
    {
      OFFSET 6.892996 -27.448557 1.416393
      CHANNELS 3 Zrotation Xrotation Yrotation
      JOINT AnkleRight
      {
        OFFSET 4.040878 -24.232960 2.958853
        CHANNELS 3 Zrotation Xrotation Yrotation
        JOINT FootRight
        {
          OFFSET 0.172775 -5.494018 0.224919
          CHANNELS 3 Zrotation Xrotation Yrotation
          End Site
          {
            OFFSET 0 0 0
          }
        }
      }
    }
  }
}
MOTION
Frames: 10
Frame Time: 0.033333
-19.982383 70.203788 316.848344 -10.876065 -1.261590 3.021925 -0.581289 -0.534165 -3.469384 0.158029 -0.647397 -0.483271 9.714813 9.832339 0.483283 0.000000 0.000000 0.000000 5.156697 3.653485 2.257148 13.230183 -8.748479 -1.048573 19.501214 -15.440786 26.552651 -6.356476 26.904481 -20.838713 0.000000 0.000000 0.000000 0.000000 0.000000 0.000000 -3.739617 16.988252 7.699983 11.862074 1.768108 -7.003655 -22.479209 21.314132 11.389781 14.365470 -34.831995 -4.487822 0.000000 0.000000 0.000000 0.000000 0.000000 0.000000 48.410711 22.404220 -3.103805 -46.874047 -25.583356 -18.193287 -36.436226 -18.049241 -120.214214 0.000000 0.000000 0.000000 13.120897 9.276696 -1.114779 -10.562700 -11.761024 -5.560374 17.183503 32.287684 -0.274138 0.000000 0.000000 0.000000
-19.956063 69.331512 316.752470 -10.511976 -1.269521 -1.053275 -0.768703 -0.537432 0.619816 0.046651 -0.723452 -0.491353 9.447448 10.144843 0.571918 0.000000 0.000000 0.000000 5.017336 3.650105 2.294155 13.412073 -8.827082 -1.075249 20.261289 -15.676651 27.258134 -6.070057 27.190124 -21.372033 0.000000 0.000000 0.000000 0.000000 0.000000 0.000000 -3.804951 16.713530 7.687143 11.432428 2.839318 -7.222817 -22.197384 20.380196 11.034417 14.496664 -33.223089 -4.546732 0.000000 0.000000 0.000000 0.000000 0.000000 0.000000 46.353843 25.082573 0.064893 -45.897288 -25.841900 -17.754094 -38.242294 -9.959729 -120.673101 0.000000 0.000000 0.000000 12.294627 10.360182 2.954862 -11.507246 -12.284627 -5.970328 22.266803 33.700381 -1.637952 0.000000 0.000000 0.000000
-19.620171 68.628542 316.711206 -9.791486 -1.364808 -3.363843 -1.164246 -0.485290 2.954054 -0.176281 -0.807104 -0.498576 9.102531 10.537338 0.663513 0.000000 0.000000 0.000000 4.790577 3.684345 2.338590 13.617203 -8.925287 -1.105220 21.755042 -15.671013 27.980416 -8.542787 27.889759 -21.248315 0.000000 0.000000 0.000000 0.000000 0.000000 0.000000 -3.017338 16.251965 7.219214 10.958397 3.432510 -7.097810 -22.118533 19.653290 10.564614 14.804695 -32.504824 -4.097476 0.000000 0.000000 0.000000 0.000000 0.000000 0.000000 43.540840 26.523623 1.733235 -45.136344 -27.020069 -17.420614 -42.836505 21.295776 -120.704412 0.000000 0.000000 0.000000 10.752529 10.998450 5.314819 -11.637258 -12.971692 -6.273705 18.348680 33.421996 -0.291838 0.000000 0.000000 0.000000
-19.060672 68.096648 316.725675 -8.880122 -1.541413 -4.705918 -1.643908 -0.389193 4.326554 -0.452079 -0.864415 -0.500026 8.777745 10.892900 0.714078 0.000000 0.000000 0.000000 4.464550 3.740194 2.389131 13.839929 -9.055371 -1.134884 21.334305 -16.267334 28.670318 -6.977414 26.702252 -21.750014 0.000000 0.000000 0.000000 0.000000 0.000000 0.000000 -2.081142 14.897616 6.558016 10.033494 4.775881 -6.959649 -22.078679 19.093331 10.040014 17.405725 -33.543844 -1.876579 0.000000 0.000000 0.000000 0.000000 0.000000 0.000000 42.034410 27.205390 2.992087 -46.877722 -25.891207 -18.026929 -62.359569 9.587287 128.924205 0.000000 0.000000 0.000000 8.390895 11.621504 6.843588 -10.655860 -14.358139 -6.577637 5.069477 30.496684 3.603340 0.000000 0.000000 0.000000
-18.312090 67.832002 316.770487 -7.877802 -1.726539 -4.703276 -2.074035 -0.287859 4.358303 -0.787054 -0.871099 -0.491969 8.436268 11.113788 0.736802 0.000000 0.000000 0.000000 4.146182 3.824795 2.403994 13.934712 -9.150618 -1.136062 21.693528 -16.554320 29.234278 -10.258644 26.665916 -21.119654 0.000000 0.000000 0.000000 0.000000 0.000000 0.000000 -1.925462 14.895224 6.364912 9.805718 4.990947 -6.913089 -22.651193 19.687902 10.367091 17.182902 -34.735789 -2.177420 0.000000 0.000000 0.000000 0.000000 0.000000 0.000000 39.860188 27.244721 2.722447 -46.920668 -26.304729 -18.001406 -39.426499 30.219295 142.211674 0.000000 0.000000 0.000000 5.641278 11.660229 7.005380 -8.287486 -14.939979 -6.277385 9.560814 33.889124 2.203480 0.000000 0.000000 0.000000
-17.561739 68.283356 316.969303 -7.032012 -2.117839 -3.052151 -2.392543 0.001235 2.740462 -1.045093 -0.811195 -0.473695 8.047800 11.231116 0.769669 0.000000 0.000000 0.000000 3.785181 3.942249 2.418852 14.024795 -9.240073 -1.137202 21.500561 -17.237691 30.047630 -7.468566 27.985359 -22.722767 0.000000 0.000000 0.000000 0.000000 0.000000 0.000000 -2.098333 14.818814 6.296386 9.893528 4.596744 -6.777823 -22.938428 20.598618 10.717789 18.756243 -37.398750 -0.815801 0.000000 0.000000 0.000000 0.000000 0.000000 0.000000 38.087580 26.684102 0.579136 -46.163668 -27.637456 -17.727762 -43.091590 26.351935 134.920428 0.000000 0.000000 0.000000 3.648896 11.623636 5.396458 -6.463008 -14.290649 -5.786919 -2.023915 25.504148 4.621298 0.000000 0.000000 0.000000
-16.705539 69.170671 317.135247 -6.137873 -2.406851 0.663563 -2.665952 0.300169 -0.936605 -1.316979 -0.714000 -0.449004 7.634755 11.153410 0.800899 0.000000 0.000000 0.000000 3.207482 4.187237 2.478646 14.213518 -9.441086 -1.138813 20.866451 -17.396460 29.929268 -6.469548 25.062038 -22.153820 0.000000 0.000000 0.000000 0.000000 0.000000 0.000000 -2.528163 15.173535 6.364187 9.972476 4.390641 -6.797959 -23.881775 22.466020 11.893975 18.110816 -39.572393 -1.762801 0.000000 0.000000 0.000000 0.000000 0.000000 0.000000 36.636503 24.894543 -3.435523 -44.455246 -29.248082 -17.034661 -60.346742 14.246264 117.127682 0.000000 0.000000 0.000000 1.651018 11.258297 1.644917 -3.945823 -13.081367 -4.988065 -16.748986 13.295990 4.614505 0.000000 0.000000 0.000000
-16.040024 69.828476 317.152331 -5.500099 -2.499982 7.374217 -2.701333 0.595645 -7.618839 -1.513077 -0.700900 -0.432267 7.235041 11.205644 0.812182 0.000000 0.000000 0.000000 2.863889 4.297442 2.467896 14.209534 -9.468669 -1.130751 20.342596 -17.308691 29.609461 -5.121055 25.645626 -22.553279 0.000000 0.000000 0.000000 0.000000 0.000000 0.000000 -3.128738 15.336404 6.488355 10.040741 4.331404 -6.846723 -23.790459 22.660744 12.057314 19.139740 -39.755683 -1.026668 0.000000 0.000000 0.000000 0.000000 0.000000 0.000000 37.005233 21.303035 -9.841738 -42.312768 -30.268174 -16.081496 -87.866729 14.887815 74.566978 0.000000 0.000000 0.000000 1.009395 10.324294 -5.367791 -2.472855 -11.023552 -4.173401 -29.525417 1.867928 1.472959 0.000000 0.000000 0.000000
-15.536765 69.947426 317.113823 -5.027126 -2.455953 8.475777 -2.663295 0.545623 -8.705742 -1.640836 -0.690277 -0.414781 6.817833 11.154831 0.821527 0.000000 0.000000 0.000000 2.677499 4.175877 2.398492 14.062168 -9.346264 -1.122121 20.249340 -17.833414 30.269666 -7.013276 29.542372 -23.468683 0.000000 0.000000 0.000000 0.000000 0.000000 0.000000 -3.880835 15.330490 6.649927 10.091576 4.299211 -6.912419 -23.703905 21.968374 11.458730 19.617421 -40.171466 -0.455333 0.000000 0.000000 0.000000 0.000000 0.000000 0.000000 36.140141 20.785383 -11.017085 -40.187743 -30.554688 -15.059095 -75.997493 30.824107 33.761652 0.000000 0.000000 0.000000 -0.191634 9.931231 -6.565622 -1.796379 -9.884331 -3.805523 -29.851671 1.466219 1.083388 0.000000 0.000000 0.000000
-15.217381 69.972729 316.907341 -4.826039 -2.141283 9.801920 -2.488017 0.318980 -10.032630 -1.684817 -0.695741 -0.400703 6.432020 10.931687 0.833991 0.000000 0.000000 0.000000 2.599197 3.807236 2.302959 13.797248 -9.048785 -1.137285 19.824831 -17.800081 30.069321 -6.976983 30.313626 -23.604956 0.000000 0.000000 0.000000 0.000000 0.000000 0.000000 -4.732215 15.788600 6.915150 10.278714 4.414845 -7.118196 -24.872970 23.126773 12.290992 18.723276 -39.547462 -2.013792 0.000000 0.000000 0.000000 0.000000 0.000000 0.000000 35.282713 20.257623 -12.544313 -37.924528 -32.461258 -14.092876 -67.901155 32.309209 25.369250 0.000000 0.000000 0.000000 -0.851063 9.224781 -8.029862 -1.353386 -9.142690 -3.547807 -24.193560 5.762499 2.441447 0.000000 0.000000 0.000000
